<svg viewBox="0 0 24 24" xmlns="http://www.w3.org/2000/svg">
  <path
    d="M12 2.5c-5.25 0-9.5 4.25-9.5 9.5 0 4.2 2.7 7.75 6.45 9 .47.1.65-.2.65-.46 0-.23-.01-.98-.01-1.78-2.37.43-2.98-.58-3.17-1.11-.11-.28-.6-1.11-1.02-1.34-.35-.19-.85-.66-.01-.67.78-.01 1.34.72 1.52 1.02.9 1.51 2.34 1.09 2.91.83.09-.65.35-1.09.64-1.34-2.1-.24-4.3-1.05-4.3-4.67 0-1.03.37-1.88.98-2.55-.1-.24-.43-1.22.09-2.54 0 0 .8-.26 2.61.97a8.8 8.8 0 0 1 2.38-.32c.81 0 1.63.11 2.38.32 1.81-1.24 2.61-.97 2.61-.97.52 1.32.19 2.3.09 2.54.61.67.98 1.52.98 2.55 0 3.63-2.21 4.42-4.32 4.66.36.32.68.94.68 1.9 0 1.37-.01 2.47-.01 2.81 0 .26.18.56.66.46A9.52 9.52 0 0 0 21.5 12c0-5.25-4.25-9.5-9.5-9.5Z"
    fill="currentColor"
  />
</svg>

