<?xml version="1.0" encoding="UTF-8" standalone="no"?>
<svg
   xmlns:dc="http://purl.org/dc/elements/1.1/"
   xmlns:cc="http://creativecommons.org/ns#"
   xmlns:rdf="http://www.w3.org/1999/02/22-rdf-syntax-ns#"
   xmlns:svg="http://www.w3.org/2000/svg"
   xmlns="http://www.w3.org/2000/svg"
   xmlns:sodipodi="http://sodipodi.sourceforge.net/DTD/sodipodi-0.dtd"
   xmlns:inkscape="http://www.inkscape.org/namespaces/inkscape"
   version="1.0"
   width="900"
   height="600"
   id="svg911"
   sodipodi:docname="Red Orchid.svg"
   inkscape:version="0.92.4 5da689c313, 2019-01-14"
   inkscape:export-filename="/home/halian/pCloudDrive/pCloud Sync/_Stuff that was on the desktop/MNs/Shireroth/Red Orchid.png"
   inkscape:export-xdpi="96"
   inkscape:export-ydpi="96">
  <metadata
     id="metadata917">
    <rdf:RDF>
      <cc:Work
         rdf:about="">
        <dc:format>image/svg+xml</dc:format>
        <dc:type
           rdf:resource="http://purl.org/dc/dcmitype/StillImage" />
        <dc:title></dc:title>
      </cc:Work>
    </rdf:RDF>
  </metadata>
  <defs
     id="defs915" />
  <sodipodi:namedview
     pagecolor="#ffffff"
     bordercolor="#666666"
     borderopacity="1"
     objecttolerance="10"
     gridtolerance="10"
     guidetolerance="10"
     inkscape:pageopacity="0"
     inkscape:pageshadow="2"
     inkscape:window-width="1882"
     inkscape:window-height="1001"
     id="namedview913"
     showgrid="false"
     fit-margin-top="0"
     fit-margin-left="0"
     fit-margin-right="0"
     fit-margin-bottom="0"
     inkscape:zoom="1.36"
     inkscape:cx="450"
     inkscape:cy="300"
     inkscape:window-x="32"
     inkscape:window-y="28"
     inkscape:window-maximized="0"
     inkscape:current-layer="svg911"
     inkscape:snap-page="true"
     inkscape:snap-text-baseline="true"
     inkscape:snap-center="true"
     inkscape:snap-object-midpoints="true"
     inkscape:snap-others="false"
     inkscape:snap-midpoints="true"
     inkscape:snap-smooth-nodes="true"
     inkscape:snap-intersection-paths="true"
     inkscape:object-paths="true"
     inkscape:snap-nodes="false"
     inkscape:snap-bbox="true"
     inkscape:bbox-paths="true"
     inkscape:bbox-nodes="true"
     inkscape:snap-bbox-edge-midpoints="true"
     inkscape:snap-bbox-midpoints="true"
     inkscape:snap-global="true" />
  <rect
     style="fill:#ffffff;fill-opacity:1;stroke:none;stroke-width:3.59931469"
     id="rect164"
     width="900"
     height="600"
     x="0"
     y="0" />
  <g
     id="g135"
     transform="matrix(1.8548484,0,0,1.8548484,-384.68178,-256.45451)"
     style="fill:#cc0000;fill-opacity:1;stroke:#ffffff">
    <path
       id="path1626"
       d="m 454.67821,295.33533 c 10.7746,-19.26873 32.71611,-43.04835 50.59405,-48.86137 21.63301,-7.034 50.73132,2.16363 67.22775,10.39604 0,15.17109 -6.1643,46.6735 -23.56437,62.37622 -14.59779,13.1738 -58.84969,25.0434 -82.47553,18.71288 l -2.772,-3.81188 c 14.89863,-13.62049 8.21366,-33.23643 -9.0099,-38.81189 z"
       style="fill:#cc0000;fill-opacity:1;stroke:#ffffff;stroke-width:4.99998522;stroke-linecap:butt;stroke-linejoin:miter;stroke-miterlimit:4;stroke-dasharray:none;stroke-opacity:1"
       inkscape:connector-curvature="0" />
    <path
       id="path1624"
       d="m 445.32178,295.33533 c -10.7746,-19.26873 -32.71611,-43.04835 -50.59405,-48.86137 -21.63301,-7.034 -50.73134,2.16363 -67.22774,10.39604 0,15.17109 6.16429,46.6735 23.56436,62.37622 14.5978,13.1738 58.84969,25.0434 82.47553,18.71288 l 2.77201,-3.81188 c -14.89864,-13.62049 -8.21366,-33.23643 9.00989,-38.81189 z"
       style="fill:#cc0000;fill-opacity:1;stroke:#ffffff;stroke-width:4.99998522;stroke-linecap:butt;stroke-linejoin:miter;stroke-miterlimit:4;stroke-dasharray:none;stroke-opacity:1"
       inkscape:connector-curvature="0" />
    <path
       id="path1622"
       d="m 468.53961,340.0383 c 8.99815,2.61457 38.38641,2.41997 60.29702,-6.93068 10.755,10.755 15.72938,12.52881 22.87129,54.0594 -48.38311,20.81106 -66.80878,3.88428 -72.77229,-2.07921 2.9559,-6.66646 1.30531,-24.78221 -10.39602,-45.04951 z"
       style="fill:#cc0000;fill-opacity:1;stroke:#ffffff;stroke-width:4.99998522;stroke-linecap:butt;stroke-linejoin:miter;stroke-miterlimit:4;stroke-dasharray:none;stroke-opacity:1"
       inkscape:connector-curvature="0" />
    <path
       id="path1620"
       d="m 431.46038,340.0383 c -8.99814,2.61457 -38.3864,2.41997 -60.29702,-6.93068 -10.75499,10.755 -15.72938,12.52881 -22.87129,54.0594 48.38311,20.81106 66.80879,3.88428 72.77229,-2.07921 -2.9559,-6.66646 -1.30531,-24.78221 10.39602,-45.04951 z"
       style="fill:#cc0000;fill-opacity:1;stroke:#ffffff;stroke-width:4.99998522;stroke-linecap:butt;stroke-linejoin:miter;stroke-miterlimit:4;stroke-dasharray:none;stroke-opacity:1"
       inkscape:connector-curvature="0" />
    <path
       id="path1618"
       d="m 453.29208,324.7908 c 5.43119,0 7.09547,3.11638 11.08911,6.2376 10.5909,-13.99029 4.50384,-29.27491 -10.39603,-33.26732 l -1.38616,2.77227 c 5.02457,17.58288 2.57998,17.21537 0.69308,24.25745 z"
       style="fill:#cc0000;fill-opacity:1;stroke:#ffffff;stroke-width:4.99998522;stroke-linecap:butt;stroke-linejoin:miter;stroke-miterlimit:4;stroke-dasharray:none;stroke-opacity:1"
       inkscape:connector-curvature="0" />
    <path
       id="path1616"
       d="m 446.70791,324.7908 c -5.43119,0 -7.09547,3.11638 -11.08911,6.2376 -10.5909,-13.99029 -4.50383,-29.27491 10.39604,-33.26732 l 1.38615,2.77227 c -5.02456,17.58288 -2.57998,17.21537 -0.69308,24.25745 z"
       style="fill:#cc0000;fill-opacity:1;stroke:#ffffff;stroke-width:4.99998522;stroke-linecap:butt;stroke-linejoin:miter;stroke-miterlimit:4;stroke-dasharray:none;stroke-opacity:1"
       inkscape:connector-curvature="0" />
    <path
       id="path1614"
       d="m 450,301.91949 c 3.25689,-12.15488 21.79279,-38.24388 43.4901,-51.98019 0,-16.46981 2.6576,-27.24225 -43.4901,-67.92079 -46.43165,40.34753 -43.46155,53.87072 -43.4901,67.92079 21.56603,12.45116 40.20742,39.72909 43.4901,51.98019 z"
       style="fill:#cc0000;fill-opacity:1;stroke:#ffffff;stroke-width:4.99998522;stroke-linecap:butt;stroke-linejoin:miter;stroke-miterlimit:4;stroke-dasharray:none;stroke-opacity:1"
       inkscape:connector-curvature="0" />
    <path
       id="path1525"
       d="m 450,418.32848 c 0,0 27.20295,-17.16498 27.20295,-40.17136 0,-23.00638 -14.04165,-51.02925 -27.20295,-51.06355 -13.16131,-0.0343 -27.54951,29.07197 -27.54951,51.06355 0,21.99157 27.54951,40.17136 27.54951,40.17136 z"
       style="fill:#cc0000;fill-opacity:1;stroke:#ffffff;stroke-width:4.99998522;stroke-linecap:butt;stroke-linejoin:miter;stroke-miterlimit:4;stroke-dasharray:none;stroke-opacity:1"
       inkscape:connector-curvature="0" />
    <ellipse
       ry="9"
       rx="3.25"
       cy="313.5787"
       cx="449.99927"
       id="path1628"
       style="fill:#cc0000;fill-opacity:1;stroke:#ffffff;stroke-width:4.97611904;stroke-linecap:round;stroke-linejoin:miter;stroke-miterlimit:4;stroke-dasharray:none;stroke-opacity:1" />
  </g>
</svg>
